<svg xmlns="http://www.w3.org/2000/svg" width="180" height="36" viewBox="0 0 201 40" fill="none">
  <path d="M17.8511 25.4923H8.9662L7.61641 29.5898H0.295898L9.42947 4.51953H17.452L26.5495 29.5898H19.1908L17.8511 25.4923ZM13.4086 12.0547L10.7452 20.1554H16.1103L13.4086 12.0547Z" fill="#172B4D"/>
  <path d="M28.8279 3.28125H35.7914V29.595H28.8279V3.28125Z" fill="#172B4D"/>
  <path d="M47.1245 9.41C48.2834 9.34062 49.4396 9.58447 50.4718 10.1159C51.504 10.6474 52.3742 11.4468 52.9909 12.4305V9.64665H59.9544V29.368C59.9544 34.6969 57.0423 39.3961 49.8622 39.3961C43.6447 39.3961 39.8059 36.2693 39.3085 31.3314H46.1718C46.4566 32.609 47.6639 33.3551 49.4409 33.3551C51.3944 33.3551 52.995 32.4686 52.995 29.376V26.8168C52.3782 27.7999 51.5083 28.5991 50.4765 29.1305C49.4448 29.6619 48.289 29.906 47.1305 29.8373C42.4052 29.8373 38.6387 25.9644 38.6387 19.6086C38.6387 13.2528 42.3972 9.41 47.1245 9.41ZM49.3627 15.485C48.8435 15.486 48.3304 15.5974 47.8575 15.8119C47.3846 16.0263 46.9628 16.3389 46.62 16.7289C46.2773 17.1189 46.0215 17.5774 45.8695 18.0739C45.7175 18.5704 45.6728 19.0935 45.7385 19.6086C45.8303 20.3054 46.121 20.9609 46.5757 21.4968C47.0304 22.0327 47.6299 22.4262 48.3025 22.6301C48.975 22.8341 49.6921 22.8399 50.3678 22.6469C51.0436 22.4538 51.6494 22.0701 52.1127 21.5416C52.576 21.0132 52.8772 20.3624 52.9803 19.6672C53.0833 18.972 52.9837 18.2618 52.6936 17.6217C52.4034 16.9816 51.935 16.4387 51.3442 16.058C50.7535 15.6772 50.0655 15.4748 49.3627 15.475V15.485Z" fill="#172B4D"/>
  <path d="M73.2039 29.8245C71.1954 29.7724 69.2467 29.1294 67.6017 27.9759C65.9566 26.8223 64.6881 25.2093 63.9548 23.3387C63.2216 21.4681 63.056 19.4228 63.4789 17.4586C63.9018 15.4944 64.8943 13.6984 66.3324 12.2953C67.7704 10.8922 69.5903 9.94408 71.5643 9.56964C73.5383 9.19521 75.579 9.41102 77.431 10.1901C79.283 10.9692 80.8643 12.2769 81.977 13.9498C83.0898 15.6228 83.6846 17.5866 83.6873 19.5958C83.7517 20.9781 83.5225 22.3583 83.015 23.6455C82.5074 24.9328 81.733 26.098 80.7426 27.0643C79.7522 28.0307 78.5683 28.7763 77.2689 29.252C75.9695 29.7278 74.5841 29.9229 73.2039 29.8245ZM73.2039 23.7836C74.9809 23.7836 76.6135 22.4699 76.6135 19.5918C76.6135 16.7478 75.009 15.4342 73.2501 15.4342C71.4911 15.4342 69.9087 16.7478 69.9087 19.5918C69.8986 22.4699 71.3908 23.7836 73.2039 23.7836Z" fill="#172B4D"/>
  <path d="M104.54 9.82599L94.1304 23.9315H104.54V29.5974H86.3125V24.2905L96.6133 10.1509H86.3125V4.53516H104.54V9.82599Z" fill="#172B4D"/>
  <path d="M117.291 29.8246C114.607 29.787 112.045 28.6942 110.16 26.7825C108.275 24.8708 107.218 22.2938 107.218 19.609C107.218 16.9242 108.275 14.3473 110.16 12.4356C112.045 10.5238 114.607 9.43098 117.291 9.39337C118.629 9.30121 119.972 9.49573 121.229 9.96387C122.486 10.432 123.628 11.163 124.58 12.1081C125.532 13.0531 126.271 14.1904 126.749 15.444C127.226 16.6976 127.43 18.0386 127.347 19.3773C127.348 19.9233 127.312 20.4686 127.241 21.0099H114.058C114.201 23.3224 115.444 24.243 117.003 24.243C117.526 24.2624 118.044 24.1235 118.487 23.8445C118.931 23.5654 119.28 23.1591 119.489 22.6786H126.91C126.38 24.7982 125.132 26.6686 123.379 27.9715C121.625 29.2745 119.474 29.9293 117.291 29.8246ZM114.094 17.6305H120.236C120.238 17.2491 120.16 16.8715 120.007 16.5221C119.854 16.1727 119.63 15.8591 119.348 15.6016C119.067 15.3441 118.735 15.1483 118.373 15.027C118.012 14.9056 117.629 14.8612 117.249 14.8968C116.471 14.8564 115.708 15.1194 115.12 15.6303C114.532 16.1413 114.165 16.8605 114.096 17.6365L114.094 17.6305Z" fill="#172B4D"/>
  <path d="M143.768 18.8822C143.808 18.4239 143.751 17.9625 143.603 17.5272C143.454 17.0918 143.217 16.6921 142.906 16.3533C142.594 16.0145 142.216 15.744 141.795 15.559C141.374 15.374 140.919 15.2784 140.459 15.2784C139.999 15.2784 139.544 15.374 139.123 15.559C138.702 15.744 138.324 16.0145 138.013 16.3533C137.702 16.6921 137.464 17.0918 137.316 17.5272C137.167 17.9625 137.111 18.4239 137.15 18.8822V29.5882H130.194V9.64234H137.158V12.4943C137.844 11.5304 138.758 10.7506 139.817 10.2241C140.877 9.69759 142.05 9.44058 143.233 9.47585C147.858 9.47585 150.73 12.745 150.73 17.9677V29.6003H143.766L143.768 18.8822Z" fill="#172B4D"/>
  <path d="M153.998 4.24251C154.113 3.24437 154.592 2.32347 155.342 1.65501C156.092 0.986548 157.062 0.617188 158.067 0.617188C159.071 0.617188 160.041 0.986548 160.791 1.65501C161.541 2.32347 162.02 3.24437 162.135 4.24251C162.002 5.22698 161.516 6.12975 160.768 6.78342C160.02 7.43708 159.06 7.79731 158.067 7.79731C157.073 7.79731 156.113 7.43708 155.365 6.78342C154.617 6.12975 154.131 5.22698 153.998 4.24251ZM154.566 9.64365H161.531V29.5896H154.566V9.64365Z" fill="#172B4D"/>
  <path d="M166.61 15.4364H164.159V9.64416H166.61V4.80859H173.612V9.64416H177.234V15.4364H173.612V22.1171C173.612 23.1821 174.071 23.6434 175.244 23.6434H177.268V29.5881H174.249C169.837 29.5881 166.61 27.7409 166.61 22.0188V15.4364Z" fill="#172B4D"/>
  <path d="M180.469 3.28125H187.434V12.4831C188.129 11.5107 189.054 10.7259 190.126 10.1991C191.199 9.67231 192.385 9.41991 193.579 9.46458C198.128 9.46458 201 12.7338 201 17.9564V29.595H194.037V18.889C194.084 18.4269 194.033 17.96 193.889 17.5186C193.744 17.0772 193.508 16.6711 193.197 16.3264C192.886 15.9817 192.505 15.7062 192.081 15.5176C191.656 15.329 191.197 15.2316 190.733 15.2316C190.268 15.2316 189.809 15.329 189.384 15.5176C188.96 15.7062 188.579 15.9817 188.268 16.3264C187.957 16.6711 187.721 17.0772 187.576 17.5186C187.432 17.96 187.381 18.4269 187.428 18.889V29.595H180.463L180.469 3.28125Z" fill="#172B4D"/>
</svg>